<svg class="animated" id="freepik_stories-weather" xmlns="http://www.w3.org/2000/svg" viewBox="0 0 500 500" version="1.1" xmlns:xlink="http://www.w3.org/1999/xlink" xmlns:svgjs="http://svgjs.com/svgjs"><style>svg#freepik_stories-weather:not(.animated) .animable {opacity: 0;}svg#freepik_stories-weather.animated #freepik--background-simple--inject-19 {animation: 1s 1 forwards cubic-bezier(.36,-0.01,.5,1.38) slideDown;animation-delay: 0s;}svg#freepik_stories-weather.animated #freepik--Shadow--inject-19 {animation: 1s 1 forwards cubic-bezier(.36,-0.01,.5,1.38) slideLeft;animation-delay: 0s;}svg#freepik_stories-weather.animated #freepik--weather-widget--inject-19 {animation: 1s 1 forwards cubic-bezier(.36,-0.01,.5,1.38) lightSpeedLeft;animation-delay: 0s;}svg#freepik_stories-weather.animated #freepik--Character--inject-19 {animation: 1s 1 forwards cubic-bezier(.36,-0.01,.5,1.38) zoomIn;animation-delay: 0s;}            @keyframes slideDown {                0% {                    opacity: 0;                    transform: translateY(-30px);                }                100% {                    opacity: 1;                    transform: translateY(0);                }            }                    @keyframes slideLeft {                0% {                    opacity: 0;                    transform: translateX(-30px);                }                100% {                    opacity: 1;                    transform: translateX(0);                }            }                    @keyframes lightSpeedLeft {              from {                transform: translate3d(-50%, 0, 0) skewX(20deg);                opacity: 0;              }              60% {                transform: skewX(-10deg);                opacity: 1;              }              80% {                transform: skewX(2deg);              }              to {                opacity: 1;                transform: translate3d(0, 0, 0);              }            }                    @keyframes zoomIn {                0% {                    opacity: 0;                    transform: scale(0.5);                }                100% {                    opacity: 1;                    transform: scale(1);                }            }        </style><g id="freepik--background-simple--inject-19" class="animable" style="transform-origin: 280.567px 211.839px;"><path d="M324.27,147.72C281.9,199.79,77,177.68,110.93,271.09c25.53,70.35,230.64,94.75,263.52,41.2,14.69-23.91-10.11-42.37,3-66.89,19.37-36.33,86.25-34.67,75.33-88.22-5.87-28.74-54.75-84-88.84-73.54C344,89.77,331.5,138.83,324.27,147.72Z" style="fill: rgb(64, 123, 255); transform-origin: 280.567px 211.839px;" id="elrn2r6qdtqm" class="animable"></path><g id="elwd55ik5g14s"><path d="M324.27,147.72C281.9,199.79,77,177.68,110.93,271.09c25.53,70.35,230.64,94.75,263.52,41.2,14.69-23.91-10.11-42.37,3-66.89,19.37-36.33,86.25-34.67,75.33-88.22-5.87-28.74-54.75-84-88.84-73.54C344,89.77,331.5,138.83,324.27,147.72Z" style="fill: rgb(255, 255, 255); opacity: 0.9; transform-origin: 280.567px 211.839px;" class="animable"></path></g></g><g id="freepik--Shadow--inject-19" class="animable" style="transform-origin: 250px 416.24px;"><ellipse id="freepik--path--inject-19" cx="250" cy="416.24" rx="193.89" ry="11.32" style="fill: rgb(245, 245, 245); transform-origin: 250px 416.24px;" class="animable"></ellipse></g><g id="freepik--weather-widget--inject-19" class="animable" style="transform-origin: 237.411px 161.551px;"><rect x="221.68" y="91.54" width="7" height="1" style="fill: rgb(64, 123, 255); transform-origin: 225.18px 92.04px;" id="elhqkmoxpsbf" class="animable"></rect><rect x="181.19" y="91.54" width="34.03" height="1" style="fill: rgb(64, 123, 255); transform-origin: 198.205px 92.04px;" id="el87lttmo6zot" class="animable"></rect><path d="M401.46,231.56H87.1a12.9,12.9,0,0,1-12.52-11.38L63.13,106.42A10.14,10.14,0,0,1,73.36,95H387.72a12.92,12.92,0,0,1,12.53,11.38l11.44,113.76A10.13,10.13,0,0,1,401.46,231.56Z" style="fill: rgb(64, 123, 255); transform-origin: 237.411px 163.28px;" id="elz0a8jgz92jp" class="animable"></path><g id="elwxdqxrvkl1"><path d="M132.11,223H94.3a12.27,12.27,0,0,1-11.89-10.8l-9.84-97.85a9.61,9.61,0,0,1,9.71-10.8h37.81A12.25,12.25,0,0,1,132,114.38l9.85,97.85A9.61,9.61,0,0,1,132.11,223Z" style="fill: rgb(255, 255, 255); opacity: 0.3; transform-origin: 107.208px 163.275px;" class="animable"></path></g><path d="M198.21,227H158.32a12.93,12.93,0,0,1-12.54-11.4L135.25,111A10.14,10.14,0,0,1,145.5,99.57h39.89A12.92,12.92,0,0,1,197.93,111l10.53,104.68A10.15,10.15,0,0,1,198.21,227Z" style="fill: rgb(255, 255, 255); transform-origin: 171.848px 163.285px;" id="elq4y455zmqxk" class="animable"></path><g id="elaihgv1ka78"><path d="M261.43,223H223.62a12.25,12.25,0,0,1-11.88-10.8l-9.85-97.85a9.61,9.61,0,0,1,9.71-10.8h37.81a12.27,12.27,0,0,1,11.89,10.8l9.84,97.85A9.61,9.61,0,0,1,261.43,223Z" style="fill: rgb(255, 255, 255); opacity: 0.3; transform-origin: 236.515px 163.275px;" class="animable"></path></g><g id="el45jjkseibph"><path d="M326.09,223H288.28a12.26,12.26,0,0,1-11.88-10.8l-9.85-97.85a9.63,9.63,0,0,1,9.72-10.8h37.8A12.27,12.27,0,0,1,326,114.38l9.84,97.85A9.61,9.61,0,0,1,326.09,223Z" style="fill: rgb(255, 255, 255); opacity: 0.2; transform-origin: 301.195px 163.275px;" class="animable"></path></g><g id="el3q379fgf2ty"><path d="M390.75,223H352.94a12.26,12.26,0,0,1-11.88-10.8l-9.85-97.85a9.63,9.63,0,0,1,9.72-10.8h37.8a12.27,12.27,0,0,1,11.89,10.8l9.84,97.85A9.61,9.61,0,0,1,390.75,223Z" style="fill: rgb(255, 255, 255); opacity: 0.1; transform-origin: 365.836px 163.275px;" class="animable"></path></g><path d="M245.22,135.62a6.28,6.28,0,0,0-6.11-5.51,5.18,5.18,0,0,0-2,.4,7.6,7.6,0,0,0-6.42-3.77,5.93,5.93,0,0,0-6,5.26,5.11,5.11,0,0,0-4.82,5.76,6.54,6.54,0,0,0,6.36,5.78h18.38a3.65,3.65,0,0,0,3.69-4.1A4.65,4.65,0,0,0,245.22,135.62Z" style="fill: rgb(255, 255, 255); transform-origin: 234.078px 135.14px;" id="elh1ck1qrw3ek" class="animable"></path><path d="M181.51,125.88a7.34,7.34,0,0,0-7.13-6.43,6.16,6.16,0,0,0-2.38.47,8.88,8.88,0,0,0-7.49-4.4,6.93,6.93,0,0,0-7,6.14,6,6,0,0,0-5.63,6.73,7.63,7.63,0,0,0,7.43,6.75h21.47a4.26,4.26,0,0,0,4.31-4.78A5.47,5.47,0,0,0,181.51,125.88Z" style="fill: rgb(64, 123, 255); transform-origin: 168.478px 125.33px;" id="eleqsn360uhzv" class="animable"></path><path d="M162.55,145.55a.9.9,0,0,1-.6-.23.89.89,0,0,1-.07-1.26l5.58-6.2a.89.89,0,0,1,1.32,1.19l-5.57,6.2A.88.88,0,0,1,162.55,145.55Z" style="fill: rgb(64, 123, 255); transform-origin: 165.314px 141.576px;" id="elno362dxr4xr" class="animable"></path><path d="M168.87,145.55a.9.9,0,0,1-.6-.23.89.89,0,0,1-.07-1.26l5.58-6.2a.89.89,0,0,1,1.32,1.19l-5.57,6.2A.88.88,0,0,1,168.87,145.55Z" style="fill: rgb(64, 123, 255); transform-origin: 171.634px 141.576px;" id="ell353ix7zvlm" class="animable"></path><path d="M156.23,145.55a.9.9,0,0,1-.6-.23.89.89,0,0,1-.07-1.26l5.58-6.2a.89.89,0,0,1,1.32,1.19l-5.57,6.2A.88.88,0,0,1,156.23,145.55Z" style="fill: rgb(64, 123, 255); transform-origin: 158.994px 141.576px;" id="el78e3flia4o5" class="animable"></path><g id="elkksmhdct3a"><g style="opacity: 0.4; transform-origin: 362.893px 134.896px;" class="animable"><path d="M372.55,131.45a5.43,5.43,0,0,0-5.27-4.75,4.56,4.56,0,0,0-1.76.34,6.56,6.56,0,0,0-5.53-3.25,5.12,5.12,0,0,0-5.2,4.54,4.42,4.42,0,0,0-4.16,5,5.65,5.65,0,0,0,5.49,5H372a3.13,3.13,0,0,0,3.17-3.53A4,4,0,0,0,372.55,131.45Z" style="fill: rgb(255, 255, 255); transform-origin: 362.893px 131.06px;" id="elg0lpeeh4mkd" class="animable"></path><path d="M358.54,146a.63.63,0,0,1-.44-.17.66.66,0,0,1-.05-.93l4-4.4a.66.66,0,1,1,1,.88l-4,4.4A.64.64,0,0,1,358.54,146Z" style="fill: rgb(255, 255, 255); transform-origin: 360.549px 143.137px;" id="elky2d4rl7tef" class="animable"></path><path d="M363.21,146a.61.61,0,0,1-.44-.17.65.65,0,0,1,0-.93l4-4.4a.66.66,0,1,1,1,.88l-4,4.4A.64.64,0,0,1,363.21,146Z" style="fill: rgb(255, 255, 255); transform-origin: 365.255px 143.139px;" id="elq83n3du3c6s" class="animable"></path><path d="M353.87,146a.64.64,0,0,1-.44-.17.66.66,0,0,1-.05-.93l4-4.4a.66.66,0,0,1,.93-.05.65.65,0,0,1,.05.93l-4,4.4A.64.64,0,0,1,353.87,146Z" style="fill: rgb(255, 255, 255); transform-origin: 355.872px 143.141px;" id="el7eyvgf9eqj7" class="animable"></path></g></g><g id="elg7zomuk5df"><g style="opacity: 0.7; transform-origin: 298.5px 136.294px;" class="animable"><path d="M303.52,136.29a4.5,4.5,0,0,1-4.55,5.07,5.73,5.73,0,0,1-5.57-5.07,4.49,4.49,0,0,1,4.55-5.06A5.73,5.73,0,0,1,303.52,136.29Z" style="fill: rgb(255, 255, 255); transform-origin: 298.46px 136.295px;" id="eli9l5rp6uctl" class="animable"></path><path d="M299.45,146.55a.43.43,0,0,1-.43-.39l-.24-2.31a.44.44,0,0,1,.39-.48.44.44,0,0,1,.48.39l.23,2.31a.43.43,0,0,1-.39.47Z" style="fill: rgb(255, 255, 255); transform-origin: 299.33px 144.959px;" id="elwgxshiryiu" class="animable"></path><path d="M297.7,129.22a.44.44,0,0,1-.43-.4l-.23-2.3a.44.44,0,0,1,.39-.48.43.43,0,0,1,.47.39l.24,2.31a.43.43,0,0,1-.39.47Z" style="fill: rgb(255, 255, 255); transform-origin: 297.59px 127.629px;" id="elsz1i6bxz1c" class="animable"></path><path d="M291,136.73h-2.31a.44.44,0,0,1-.43-.44.43.43,0,0,1,.43-.43H291a.43.43,0,0,1,.43.43A.44.44,0,0,1,291,136.73Z" style="fill: rgb(255, 255, 255); transform-origin: 289.845px 136.295px;" id="elq99mfs5zg3j" class="animable"></path><path d="M308.28,136.73H306a.44.44,0,0,1-.43-.44.43.43,0,0,1,.43-.43h2.31a.43.43,0,0,1,.43.43A.44.44,0,0,1,308.28,136.73Z" style="fill: rgb(255, 255, 255); transform-origin: 307.155px 136.295px;" id="el5vsp29fa85r" class="animable"></path><path d="M306.1,143.67a.46.46,0,0,1-.29-.11l-1.8-1.63a.44.44,0,0,1,.59-.65l1.79,1.63a.44.44,0,0,1,0,.62A.43.43,0,0,1,306.1,143.67Z" style="fill: rgb(255, 255, 255); transform-origin: 305.203px 142.428px;" id="elmfhexjwbfwl" class="animable"></path><path d="M292.61,131.42a.44.44,0,0,1-.29-.12l-1.79-1.63a.43.43,0,1,1,.58-.64l1.8,1.63a.44.44,0,0,1-.3.76Z" style="fill: rgb(255, 255, 255); transform-origin: 291.718px 130.169px;" id="elyj66mrndppa" class="animable"></path><path d="M292.22,143.67a.44.44,0,0,1-.29-.11.43.43,0,0,1,0-.61l1.47-1.63a.43.43,0,0,1,.61,0,.44.44,0,0,1,0,.62l-1.47,1.63A.45.45,0,0,1,292.22,143.67Z" style="fill: rgb(255, 255, 255); transform-origin: 292.97px 142.432px;" id="el8r1n6dbl9yv" class="animable"></path><path d="M303.24,131.42a.4.4,0,0,1-.29-.12.43.43,0,0,1,0-.61l1.47-1.63a.44.44,0,0,1,.65.58l-1.47,1.63A.42.42,0,0,1,303.24,131.42Z" style="fill: rgb(255, 255, 255); transform-origin: 303.983px 130.189px;" id="elpzp10t6yu09" class="animable"></path></g></g><path d="M114.29,135a5.35,5.35,0,0,0-5.2-4.69,4.45,4.45,0,0,0-1.73.35,6.46,6.46,0,0,0-5.46-3.21,5,5,0,0,0-5.13,4.47,4.37,4.37,0,0,0-4.11,4.91,5.57,5.57,0,0,0,5.42,4.92h15.65a3.1,3.1,0,0,0,3.14-3.49A4,4,0,0,0,114.29,135Z" style="fill: rgb(255, 255, 255); transform-origin: 104.76px 134.599px;" id="eloft5h5qh7b9" class="animable"></path><path d="M98.7,126.61a6.22,6.22,0,0,0-3.24,3.91,5.47,5.47,0,0,0-2.76,1.59A4.72,4.72,0,0,1,91,129a3.83,3.83,0,0,1,3.88-4.31A4.82,4.82,0,0,1,98.7,126.61Z" style="fill: rgb(255, 255, 255); transform-origin: 94.8348px 128.4px;" id="eljkqkgj11d2" class="animable"></path><path d="M94.7,123a.37.37,0,0,1-.37-.33l-.19-2a.36.36,0,0,1,.33-.4.36.36,0,0,1,.4.33l.2,2a.37.37,0,0,1-.33.41Z" style="fill: rgb(255, 255, 255); transform-origin: 94.605px 121.639px;" id="el2mw1jlh5vo5" class="animable"></path><path d="M89,129.36H87a.37.37,0,0,1-.37-.37.36.36,0,0,1,.37-.37h2a.37.37,0,0,1,.37.37A.38.38,0,0,1,89,129.36Z" style="fill: rgb(255, 255, 255); transform-origin: 87.9999px 128.99px;" id="el2kipjq3fa9t" class="animable"></path><path d="M90.37,124.83a.38.38,0,0,1-.25-.09l-1.53-1.39a.37.37,0,0,1,.5-.55l1.53,1.39a.37.37,0,0,1,0,.52A.36.36,0,0,1,90.37,124.83Z" style="fill: rgb(255, 255, 255); transform-origin: 89.5975px 123.767px;" id="ele07cabqft24" class="animable"></path><path d="M90,135.27a.35.35,0,0,1-.25-.1.37.37,0,0,1,0-.52L91,133.26a.39.39,0,0,1,.53,0,.38.38,0,0,1,0,.53l-1.25,1.39A.36.36,0,0,1,90,135.27Z" style="fill: rgb(255, 255, 255); transform-origin: 90.6404px 134.214px;" id="el3v8dlq5sz0b" class="animable"></path><path d="M99.41,124.83a.36.36,0,0,1-.27-.61l1.25-1.39a.37.37,0,0,1,.52,0,.38.38,0,0,1,0,.52l-1.25,1.39A.39.39,0,0,1,99.41,124.83Z" style="fill: rgb(255, 255, 255); transform-origin: 100.026px 123.777px;" id="el776i3z3z044" class="animable"></path><path d="M130.54,202.71H91.78a2.15,2.15,0,0,1-2.08-1.89l-.39-3.89a1.68,1.68,0,0,1,1.7-1.88h38.76a2.14,2.14,0,0,1,2.07,1.88l.39,3.89A1.68,1.68,0,0,1,130.54,202.71Z" style="fill: rgb(255, 255, 255); transform-origin: 110.771px 198.88px;" id="elz1ld2jimy3" class="animable"></path><path d="M197.26,204.42H154.72a2.35,2.35,0,0,1-2.28-2.07l-.43-4.27a1.84,1.84,0,0,1,1.86-2.07h42.55a2.35,2.35,0,0,1,2.28,2.07l.43,4.27A1.85,1.85,0,0,1,197.26,204.42Z" style="fill: rgb(64, 123, 255); transform-origin: 175.569px 200.215px;" id="elapspu3v23s5" class="animable"></path><path d="M259.86,202.71H221.1a2.14,2.14,0,0,1-2.07-1.89l-.39-3.89a1.67,1.67,0,0,1,1.69-1.88h38.76a2.13,2.13,0,0,1,2.07,1.88l.4,3.89A1.69,1.69,0,0,1,259.86,202.71Z" style="fill: rgb(255, 255, 255); transform-origin: 240.099px 198.88px;" id="els1jccwxmuaf" class="animable"></path><g id="elgb9zftkiji"><path d="M324.52,202.71H285.76a2.14,2.14,0,0,1-2.07-1.89l-.39-3.89a1.67,1.67,0,0,1,1.69-1.88h38.76a2.13,2.13,0,0,1,2.07,1.88l.4,3.89A1.69,1.69,0,0,1,324.52,202.71Z" style="fill: rgb(255, 255, 255); opacity: 0.7; transform-origin: 304.759px 198.88px;" class="animable"></path></g><g id="el09u0wwu6stzw"><path d="M389.18,202.71H350.43a2.14,2.14,0,0,1-2.08-1.89l-.39-3.89a1.67,1.67,0,0,1,1.69-1.88h38.76a2.15,2.15,0,0,1,2.08,1.88l.39,3.89A1.69,1.69,0,0,1,389.18,202.71Z" style="fill: rgb(255, 255, 255); opacity: 0.4; transform-origin: 369.419px 198.88px;" class="animable"></path></g></g><g id="freepik--Character--inject-19" class="animable" style="transform-origin: 283.738px 267.2px;"><path d="M368,167.63c2.8,4.65,5.33,9.29,7.74,14.1a148.33,148.33,0,0,1,6.51,14.92c.24.65.47,1.31.68,2l.33,1,.17.5.12.4c0,.17.09.34.13.51a11.74,11.74,0,0,1-.56,6.44,28.77,28.77,0,0,1-4.65,8A68.62,68.62,0,0,1,366.68,227l-3.77-3.9a123.22,123.22,0,0,0,8.58-12.43,32.83,32.83,0,0,0,1.6-3.11,14.62,14.62,0,0,0,1-2.84c.19-.82.1-1.47,0-1.33v0l0-.07-.18-.42-.34-.85c-.23-.56-.47-1.13-.73-1.7-2-4.55-4.36-9.12-6.78-13.65s-5-9.09-7.46-13.52Z" style="fill: rgb(255, 139, 123); transform-origin: 371.248px 197.315px;" id="elibdqtwm7cog" class="animable"></path><path d="M364.34,221.35l-5.69,5,7.92,5s2.33-3.78,2.23-7.28Z" style="fill: rgb(255, 139, 123); transform-origin: 363.727px 226.35px;" id="elh8ad34y71xe" class="animable"></path><polygon points="356.57 233.83 362.63 237.73 366.57 231.38 358.65 226.38 356.57 233.83" style="fill: rgb(255, 139, 123); transform-origin: 361.57px 232.055px;" id="eltg3ienyy05" class="animable"></polygon><path d="M334.69,135.09c-.11.57-.51,1-.88.91s-.59-.6-.48-1.17.51-1,.88-.91S334.8,134.52,334.69,135.09Z" style="fill: rgb(38, 50, 56); transform-origin: 334.01px 134.96px;" id="elx082pn3fmp" class="animable"></path><path d="M334.24,136.08a20.58,20.58,0,0,1-3.69,4.36,3.35,3.35,0,0,0,2.64,1.05Z" style="fill: rgb(255, 86, 82); transform-origin: 332.395px 138.788px;" id="elmd34y400ozj" class="animable"></path><path d="M337.4,132.32a.33.33,0,0,0,.23-.09.35.35,0,0,0,0-.49,3.36,3.36,0,0,0-2.93-1.1.33.33,0,0,0-.27.39.34.34,0,0,0,.39.28h0a2.72,2.72,0,0,1,2.31.9A.36.36,0,0,0,337.4,132.32Z" style="fill: rgb(38, 50, 56); transform-origin: 336.077px 131.467px;" id="elptm70e056r" class="animable"></path><path d="M348.4,142c-1,5.29-2.07,15,1.63,18.51,0,0-1.45,5.36-11.27,5.36-10.81,0-4.75-4.54-4.75-4.54,4.58-4,5.73-8.14,4.71-12.24Z" style="fill: rgb(255, 139, 123); transform-origin: 341.173px 153.935px;" id="elr2sgsk3uoy" class="animable"></path><path d="M351.24,162.11c.55-2,1.15-4.26-.59-4.79-1.91-.58-12.07-.4-15.42,1.35s-2,5.55-2,5.55Z" style="fill: rgb(38, 50, 56); transform-origin: 342.382px 160.622px;" id="el9xbcqj0a4zi" class="animable"></path><path d="M386.32,405.69a2.31,2.31,0,0,1-1.8-.1.71.71,0,0,1-.16-.8.78.78,0,0,1,.44-.5c1-.47,3.22.45,3.31.49a.17.17,0,0,1,0,.31A8.87,8.87,0,0,1,386.32,405.69Zm-1.18-1.16-.2.07a.47.47,0,0,0-.26.29c-.09.31,0,.41.06.44.39.33,1.84,0,2.85-.38A5.52,5.52,0,0,0,385.14,404.53Z" style="fill: rgb(64, 123, 255); transform-origin: 386.255px 404.992px;" id="eli8jswjfhwf" class="animable"></path><path d="M388.08,405.1H388c-.82-.24-2.57-1.48-2.59-2.3a.56.56,0,0,1,.44-.55.92.92,0,0,1,.76.06c1,.49,1.57,2.49,1.6,2.58a.16.16,0,0,1-.13.21Zm-2-2.55-.08,0c-.21.07-.21.18-.21.22,0,.49,1.17,1.46,2,1.86a4.21,4.21,0,0,0-1.32-2A.6.6,0,0,0,386,402.55Z" style="fill: rgb(64, 123, 255); transform-origin: 386.814px 403.647px;" id="elmssrnwy5ain" class="animable"></path><path d="M333,409.23c-.93,0-1.82-.13-2.12-.55a.63.63,0,0,1,0-.74.83.83,0,0,1,.54-.4c1.21-.33,3.73,1.11,3.84,1.17a.18.18,0,0,1,.08.18.17.17,0,0,1-.13.14A13,13,0,0,1,333,409.23Zm-1.15-1.4a1.15,1.15,0,0,0-.33,0,.47.47,0,0,0-.33.24c-.12.21-.08.31,0,.37.34.47,2.17.48,3.51.29A7.78,7.78,0,0,0,331.88,407.83Z" style="fill: rgb(64, 123, 255); transform-origin: 333.051px 408.36px;" id="elvpdciy4xrlh" class="animable"></path><path d="M335.21,409l-.07,0c-.87-.39-2.6-1.95-2.47-2.77,0-.19.17-.43.64-.48a1.28,1.28,0,0,1,.95.3,4.8,4.8,0,0,1,1.12,2.78.17.17,0,0,1-.07.16A.17.17,0,0,1,335.21,409Zm-1.76-2.93h-.1c-.31,0-.33.16-.34.2-.08.49,1.1,1.72,2,2.25a4,4,0,0,0-1-2.23A.88.88,0,0,0,333.45,406.1Z" style="fill: rgb(64, 123, 255); transform-origin: 334.022px 407.374px;" id="elyeldfizxhth" class="animable"></path><polygon points="343.16 408.86 335.93 408.86 335.21 392.12 342.44 392.12 343.16 408.86" style="fill: rgb(255, 139, 123); transform-origin: 339.185px 400.49px;" id="elxpn77pl62gl" class="animable"></polygon><polygon points="396.14 403.18 389.07 404.71 381.98 389.12 389.05 387.59 396.14 403.18" style="fill: rgb(255, 139, 123); transform-origin: 389.06px 396.15px;" id="elp3oc9ey9oe" class="animable"></polygon><path d="M388.4,404l7.93-1.71a.63.63,0,0,1,.71.35l2.75,6a1.06,1.06,0,0,1-.76,1.48c-2.78.55-4.16.68-7.65,1.43-2.15.47-7,1.65-10,2.29s-4-2.21-2.83-2.73c5.18-2.37,7.35-4.46,8.75-6.4A1.82,1.82,0,0,1,388.4,404Z" style="fill: rgb(38, 50, 56); transform-origin: 388.98px 408.104px;" id="elbvmsw2wa7mm" class="animable"></path><path d="M336,408h7.89a.63.63,0,0,1,.62.49l1.43,6.43a1.05,1.05,0,0,1-1,1.29c-2.85-.05-7-.22-10.54-.22-4.19,0-4.12.23-9,.23-3,0-3.79-3-2.55-3.27,5.65-1.24,6.58-1.37,11.47-4.39A3.41,3.41,0,0,1,336,408Z" style="fill: rgb(38, 50, 56); transform-origin: 334.127px 412.11px;" id="eln2jxw9yxn7" class="animable"></path><path d="M328.56,175.73c-2.76,5.11-5.66,10-8.77,14.84a155.13,155.13,0,0,1-10.17,14.21c-.46.58-1,1.15-1.48,1.72l-.75.87-.89.91c-.59.6-1.13,1.08-1.71,1.61l-1.68,1.46c-2.24,1.89-4.5,3.65-6.78,5.38-4.57,3.45-9.24,6.69-14.07,9.76l-3.41-4.23c3.94-4,8-8,12-11.93,2-2,4-3.92,5.88-5.87.93-1,1.87-2,2.65-2.87l.54-.65.59-.77c.39-.53.79-1,1.17-1.58,3.11-4.34,6-9.05,8.9-13.79s5.69-9.58,8.42-14.35Z" style="fill: rgb(255, 139, 123); transform-origin: 303.705px 198.47px;" id="elq1t6a4mjkdl" class="animable"></path><path d="M365.2,162.15C372,163.71,379.94,188,379.94,188l-11.59,7.58s-7.37-11.32-11.2-19.39C353.13,167.77,358.27,160.57,365.2,162.15Z" style="fill: rgb(64, 123, 255); transform-origin: 367.838px 178.755px;" id="ellss6fziw49" class="animable"></path><g id="el133h6ek0l1sc"><g style="opacity: 0.7; transform-origin: 367.838px 178.755px;" class="animable"><path d="M365.2,162.15C372,163.71,379.94,188,379.94,188l-11.59,7.58s-7.37-11.32-11.2-19.39C353.13,167.77,358.27,160.57,365.2,162.15Z" style="fill: rgb(255, 255, 255); transform-origin: 367.838px 178.755px;" id="el8jzbws00xiw" class="animable"></path></g></g><g id="elzyu08y5h59"><path d="M361.35,174.62c-.59-.77-2.2,1-3.41,3.23,1.68,3.32,3.8,7,5.68,10.14C364.79,181.92,362.88,176.57,361.35,174.62Z" style="fill: rgb(64, 123, 255); opacity: 0.5; transform-origin: 360.961px 181.213px;" class="animable"></path></g><path d="M324.7,162.53s-7.69,8.69-.43,62.47h38.66c.27-5.93-3.46-34.88,2.27-62.85a100.45,100.45,0,0,0-12.95-1.63,140.61,140.61,0,0,0-16.43,0A72.16,72.16,0,0,0,324.7,162.53Z" style="fill: rgb(64, 123, 255); transform-origin: 343.176px 192.64px;" id="el755nol0civv" class="animable"></path><g id="el2la5q76c3y8"><path d="M324.7,162.53s-7.69,8.69-.43,62.47h38.66c.27-5.93-3.46-34.88,2.27-62.85a100.45,100.45,0,0,0-12.95-1.63,140.61,140.61,0,0,0-16.43,0A72.16,72.16,0,0,0,324.7,162.53Z" style="fill: rgb(255, 255, 255); opacity: 0.7; transform-origin: 343.176px 192.64px;" class="animable"></path></g><g id="elsr5spjb3v5"><path d="M321.43,177.32a156,156,0,0,0,0,19.3c4.92-3.16,9.44-11.57,9-17.13Z" style="fill: rgb(64, 123, 255); opacity: 0.5; transform-origin: 325.795px 186.97px;" class="animable"></path></g><polygon points="177.98 163.59 176.81 165.49 167.59 159.08 168.19 158.12 177.98 163.59" style="fill: rgb(64, 123, 255); transform-origin: 172.785px 161.805px;" id="elb4ka10cxzcp" class="animable"></polygon><polygon points="178.29 163.1 176.5 165.98 266.96 227.85 273.97 216.53 178.29 163.1" style="fill: rgb(38, 50, 56); transform-origin: 225.235px 195.475px;" id="elrwsrean7yb" class="animable"></polygon><g id="elik59nn6ljo"><polygon points="177.96 163.64 176.84 165.44 268.26 225.74 272.66 218.64 177.96 163.64" style="fill: rgb(255, 255, 255); opacity: 0.2; transform-origin: 224.75px 194.69px;" class="animable"></polygon></g><polygon points="177.58 164.24 177.21 164.84 269.73 223.37 271.19 221 177.58 164.24" style="fill: rgb(38, 50, 56); transform-origin: 224.2px 193.805px;" id="eltwxub2a2s9" class="animable"></polygon><path d="M275.35,238.21a5.31,5.31,0,0,1-2.79-.79l.65-1a4.17,4.17,0,0,0,3.41.41,5.44,5.44,0,0,0,3.74-6,4.15,4.15,0,0,0-1.89-2.86l-8.33-5.17.65-1.05,8.33,5.17a5.39,5.39,0,0,1,2.46,3.69A6.69,6.69,0,0,1,277,238,5.66,5.66,0,0,1,275.35,238.21Z" style="fill: rgb(38, 50, 56); transform-origin: 275.899px 229.981px;" id="elxgw2yv0nl3" class="animable"></path><path d="M335.3,167.33c3.8,9.21-19.2,32.21-19.2,32.21l-11.9-9s8.23-12.06,11.62-20.34C320,160,332.4,160.32,335.3,167.33Z" style="fill: rgb(64, 123, 255); transform-origin: 319.962px 180.908px;" id="el8ers65upwpn" class="animable"></path><g id="eluu2x1qnzf3"><path d="M335.3,167.33c3.8,9.21-19.2,32.21-19.2,32.21l-11.9-9s8.23-12.06,11.62-20.34C320,160,332.4,160.32,335.3,167.33Z" style="fill: rgb(255, 255, 255); opacity: 0.7; transform-origin: 319.962px 180.908px;" class="animable"></path></g><path d="M308,187.2c2.51,2.45,8.09,7.77,10.65,9.29a.85.85,0,0,1,.31,1.11c-.85,1.59-2.78,3.92-4.06,4.11-1.51.23-13.17-7.47-13.38-9.05-.13-1.07,2.33-3.8,3.92-5.43A1.8,1.8,0,0,1,308,187.2Z" style="fill: rgb(38, 50, 56); transform-origin: 310.284px 194.198px;" id="elmwv0di9plw" class="animable"></path><path d="M366.09,190.59c3.13-1.57,10-5.11,12.25-7a.84.84,0,0,1,1.15.08c1.23,1.32,2.8,3.9,2.57,5.17-.28,1.51-11.37,10-12.92,9.7-1.06-.22-2.83-3.44-3.86-5.47A1.82,1.82,0,0,1,366.09,190.59Z" style="fill: rgb(38, 50, 56); transform-origin: 373.577px 190.974px;" id="ele9m46qmw9y" class="animable"></path><path d="M281.21,220.59l-7.28,2.28,3.3,7.18s6.33-.84,7.58-6Z" style="fill: rgb(255, 139, 123); transform-origin: 279.37px 225.32px;" id="elgrt0jdwuhig" class="animable"></path><polygon points="270.62 226.69 273.27 231.44 277.23 230.05 273.93 222.87 270.62 226.69" style="fill: rgb(255, 139, 123); transform-origin: 273.925px 227.155px;" id="elk6oibzu4xxc" class="animable"></polygon><g id="el1beshnqy236i"><polygon points="335.21 392.12 335.58 400.75 342.82 400.75 342.45 392.12 335.21 392.12" style="opacity: 0.2; transform-origin: 339.015px 396.435px;" class="animable"></polygon></g><g id="elc16ydj3gywg"><polygon points="389.05 387.6 381.98 389.13 385.64 397.16 392.71 395.63 389.05 387.6" style="opacity: 0.2; transform-origin: 387.345px 392.38px;" class="animable"></polygon></g><path d="M354,137.57c-1.79,7-2.49,11.11-6.73,14-6.4,4.39-14.45-.51-14.77-7.85-.28-6.61,2.7-16.86,10.12-18.32A9.77,9.77,0,0,1,354,137.57Z" style="fill: rgb(255, 139, 123); transform-origin: 343.417px 139.216px;" id="elv8m56mm5vw" class="animable"></path><path d="M337.74,139.24a5.88,5.88,0,0,1,1.2-6.92c-2.22-1.15-4.27-5.1-2.13-7.38-5.75-1.33-2.57-7.3,6.36-6.72s1.94,4.35,1.94,4.35,19.22,1.49,12.28,8.49c3.05,1.83,3.33,8-1,10.95-7,4.8-4.83,10.16-10.16,9.2C341.37,150.33,337.17,144.89,337.74,139.24Z" style="fill: rgb(38, 50, 56); transform-origin: 346.79px 134.752px;" id="elqh5wwso04dn" class="animable"></path><path d="M340.48,138.2a5.72,5.72,0,0,1-2.63,3.92c-1.79,1-2.85.24-2.88-1.62,0-1.67.75-4.38,2.51-5S340.71,136.34,340.48,138.2Z" style="fill: rgb(255, 139, 123); transform-origin: 337.737px 138.959px;" id="elmbc19599m6f" class="animable"></path><path d="M338,225s8.2,55.24,12.7,75.93c4.94,22.66,31.31,95.31,31.31,95.31l12.93-2.8s-19.74-68-22.55-90.45c-3.06-24.36-9.45-78-9.45-78Z" style="fill: rgb(38, 50, 56); transform-origin: 366.47px 310.615px;" id="ele5h5dcspzos" class="animable"></path><path d="M378.54,390.44c-.06,0,2.77,6.16,2.77,6.16l14.56-3.15-1.59-5.86Z" style="fill: rgb(64, 123, 255); transform-origin: 387.205px 392.095px;" id="el3p2e2yi3ven" class="animable"></path><g id="el9dsnm2m3l9l"><path d="M378.54,390.44c-.06,0,2.77,6.16,2.77,6.16l14.56-3.15-1.59-5.86Z" style="fill: rgb(255, 255, 255); opacity: 0.7; transform-origin: 387.205px 392.095px;" class="animable"></path></g><g id="elejebijibu3d"><path d="M343.17,244.68c9.49,1.86,8.48,37.23,7.34,55.42-2.73-12.86-6.74-37.6-9.47-55.16A3.18,3.18,0,0,1,343.17,244.68Z" style="opacity: 0.3; transform-origin: 346.132px 272.351px;" class="animable"></path></g><path d="M324.27,225s-1,54-.2,76.08c.81,22.93,8.82,98,8.82,98h12.25s.45-73.73,1-96.25c.59-24.54,3.56-77.83,3.56-77.83Z" style="fill: rgb(38, 50, 56); transform-origin: 336.73px 312.04px;" id="elsxxesp3regj" class="animable"></path><path d="M330.53,392.71s.7,6.58.7,6.58h14.89l.4-6Z" style="fill: rgb(64, 123, 255); transform-origin: 338.525px 396px;" id="elxeao34jbgk" class="animable"></path><g id="elwek8coarq6j"><path d="M330.53,392.71s.7,6.58.7,6.58h14.89l.4-6Z" style="fill: rgb(255, 255, 255); opacity: 0.7; transform-origin: 338.525px 396px;" class="animable"></path></g></g><defs>     <filter id="active" height="200%">         <feMorphology in="SourceAlpha" result="DILATED" operator="dilate" radius="2"></feMorphology>                <feFlood flood-color="#32DFEC" flood-opacity="1" result="PINK"></feFlood>        <feComposite in="PINK" in2="DILATED" operator="in" result="OUTLINE"></feComposite>        <feMerge>            <feMergeNode in="OUTLINE"></feMergeNode>            <feMergeNode in="SourceGraphic"></feMergeNode>        </feMerge>    </filter>    <filter id="hover" height="200%">        <feMorphology in="SourceAlpha" result="DILATED" operator="dilate" radius="2"></feMorphology>                <feFlood flood-color="#ff0000" flood-opacity="0.5" result="PINK"></feFlood>        <feComposite in="PINK" in2="DILATED" operator="in" result="OUTLINE"></feComposite>        <feMerge>            <feMergeNode in="OUTLINE"></feMergeNode>            <feMergeNode in="SourceGraphic"></feMergeNode>        </feMerge>            <feColorMatrix type="matrix" values="0   0   0   0   0                0   1   0   0   0                0   0   0   0   0                0   0   0   1   0 "></feColorMatrix>    </filter></defs></svg>